<?xml version="1.0" encoding="UTF-8" standalone="no"?>
<svg
   version="1.1"
   width="180mm"
   height="25mm"
   viewBox="0 0 100 1"
   stroke="none"
   preserveAspectRatio="none"
   shape-rendering="crispEdges"
   id="svg201"
   sodipodi:docname="heat_colours.svg"
   inkscape:export-filename="heat_colours.svg"
   inkscape:export-xdpi="96"
   inkscape:export-ydpi="96"
   inkscape:version="1.3.2 (091e20e, 2023-11-25, custom)"
   xmlns:inkscape="http://www.inkscape.org/namespaces/inkscape"
   xmlns:sodipodi="http://sodipodi.sourceforge.net/DTD/sodipodi-0.dtd"
   xmlns="http://www.w3.org/2000/svg"
   xmlns:svg="http://www.w3.org/2000/svg">
  <sodipodi:namedview
     id="namedview201"
     pagecolor="#ffffff"
     bordercolor="#666666"
     borderopacity="1.0"
     inkscape:showpageshadow="2"
     inkscape:pageopacity="0.0"
     inkscape:pagecheckerboard="0"
     inkscape:deskcolor="#d1d1d1"
     inkscape:document-units="mm"
     inkscape:zoom="1.9343981"
     inkscape:cx="340.15748"
     inkscape:cy="47.301534"
     inkscape:window-width="1920"
     inkscape:window-height="1017"
     inkscape:window-x="-8"
     inkscape:window-y="-8"
     inkscape:window-maximized="1"
     inkscape:current-layer="svg201" />
  <defs
     id="defs1">
    <pattern
       id="pat_1vMjCz"
       width=".2"
       height=".2"
       patternUnits="userSpaceOnUse"
       patternTransform="scale(13.889,1)">
      <path
         d="M.1,0h.1v.1h-.2v.1h.1z"
         fill="#999"
         opacity=".5"
         id="path1" />
    </pattern>
  </defs>
  <rect
     width="100"
     height="1"
     fill="url(#pat_1vMjCz)"
     id="rect1" />
  <path
     d="M1,.46V1h-1V.54z"
     fill="#7E1700"
     id="path2" />
  <path
     d="M0,0h1v1h-1z"
     fill="#7E1700"
     fill-opacity="1"
     id="path3" />
  <path
     d="M2,.46V1h-1V.54z"
     fill="#7E1700"
     id="path4" />
  <path
     d="M1,0h1v1h-1z"
     fill="#7E1700"
     fill-opacity="1"
     id="path5" />
  <path
     d="M3,.46V1h-1V.54z"
     fill="#7E1700"
     id="path6" />
  <path
     d="M2,0h1v1h-1z"
     fill="#7E1700"
     fill-opacity="1"
     id="path7" />
  <path
     d="M4,.46V1h-1V.54z"
     fill="#9A5215"
     id="path8" />
  <path
     d="M3,0h1v1h-1z"
     fill="#9A5215"
     fill-opacity="1"
     id="path9" />
  <path
     d="M5,.46V1h-1V.54z"
     fill="#9A5215"
     id="path10" />
  <path
     d="M4,0h1v1h-1z"
     fill="#9A5215"
     fill-opacity="1"
     id="path11" />
  <path
     d="M6,.46V1h-1V.54z"
     fill="#9A5215"
     id="path12" />
  <path
     d="M5,0h1v1h-1z"
     fill="#9A5215"
     fill-opacity="1"
     id="path13" />
  <path
     d="M7,.46V1h-1V.54z"
     fill="#9A5215"
     id="path14" />
  <path
     d="M6,0h1v1h-1z"
     fill="#9A5215"
     fill-opacity="1"
     id="path15" />
  <path
     d="M8,.46V1h-1V.54z"
     fill="#B0802A"
     id="path16" />
  <path
     d="M7,0h1v1h-1z"
     fill="#B0802A"
     fill-opacity="1"
     id="path17" />
  <path
     d="M9,.46V1h-1V.54z"
     fill="#B0802A"
     id="path18" />
  <path
     d="M8,0h1v1h-1z"
     fill="#B0802A"
     fill-opacity="1"
     id="path19" />
  <path
     d="M10,.46V1h-1V.54z"
     fill="#B0802A"
     id="path20" />
  <path
     d="M9,0h1v1h-1z"
     fill="#B0802A"
     fill-opacity="1"
     id="path21" />
  <path
     d="M11,.46V1h-1V.54z"
     fill="#B0802A"
     id="path22" />
  <path
     d="M10,0h1v1h-1z"
     fill="#B0802A"
     fill-opacity="1"
     id="path23" />
  <path
     d="M12,.46V1h-1V.54z"
     fill="#C8B455"
     id="path24" />
  <path
     d="M11,0h1v1h-1z"
     fill="#C8B455"
     fill-opacity="1"
     id="path25" />
  <path
     d="M13,.46V1h-1V.54z"
     fill="#C8B455"
     id="path26" />
  <path
     d="M12,0h1v1h-1z"
     fill="#C8B455"
     fill-opacity="1"
     id="path27" />
  <path
     d="M14,.46V1h-1V.54z"
     fill="#C8B455"
     id="path28" />
  <path
     d="M13,0h1v1h-1z"
     fill="#C8B455"
     fill-opacity="1"
     id="path29" />
  <path
     d="M15,.46V1h-1V.54z"
     fill="#C8B455"
     id="path30" />
  <path
     d="M14,0h1v1h-1z"
     fill="#C8B455"
     fill-opacity="1"
     id="path31" />
  <path
     d="M16,.46V1h-1V.54z"
     fill="#C8B455"
     id="path32" />
  <path
     d="M15,0h1v1h-1z"
     fill="#C8B455"
     fill-opacity="1"
     id="path33" />
  <path
     d="M17,.46V1h-1V.54z"
     fill="#C8B455"
     id="path34" />
  <path
     d="M16,0h1v1h-1z"
     fill="#C8B455"
     fill-opacity="1"
     id="path35" />
  <path
     d="M18,.46V1h-1V.54z"
     fill="#D0E3A4"
     id="path36" />
  <path
     d="M17,0h1v1h-1z"
     fill="#D0E3A4"
     fill-opacity="1"
     id="path37" />
  <path
     d="M19,.46V1h-1V.54z"
     fill="#D0E3A4"
     id="path38" />
  <path
     d="M18,0h1v1h-1z"
     fill="#D0E3A4"
     fill-opacity="1"
     id="path39" />
  <path
     d="M20,.46V1h-1V.54z"
     fill="#D0E3A4"
     id="path40" />
  <path
     d="M19,0h1v1h-1z"
     fill="#D0E3A4"
     fill-opacity="1"
     id="path41" />
  <path
     d="M21,.46V1h-1V.54z"
     fill="#D0E3A4"
     id="path42" />
  <path
     d="M20,0h1v1h-1z"
     fill="#D0E3A4"
     fill-opacity="1"
     id="path43" />
  <path
     d="M22,.46V1h-1V.54z"
     fill="#D0E3A4"
     id="path44" />
  <path
     d="M21,0h1v1h-1z"
     fill="#D0E3A4"
     fill-opacity="1"
     id="path45" />
  <path
     d="M23,.46V1h-1V.54z"
     fill="#D0E3A4"
     id="path46" />
  <path
     d="M22,0h1v1h-1z"
     fill="#D0E3A4"
     fill-opacity="1"
     id="path47" />
  <path
     d="M24,.46V1h-1V.54z"
     fill="#D0E3A4"
     id="path48" />
  <path
     d="M23,0h1v1h-1z"
     fill="#D0E3A4"
     fill-opacity="1"
     id="path49" />
  <path
     d="M25,.46V1h-1V.54z"
     fill="#A5E6D3"
     id="path50" />
  <path
     d="M24,0h1v1h-1z"
     fill="#A5E6D3"
     fill-opacity="1"
     id="path51" />
  <path
     d="M26,.46V1h-1V.54z"
     fill="#A5E6D3"
     id="path52" />
  <path
     d="M25,0h1v1h-1z"
     fill="#A5E6D3"
     fill-opacity="1"
     id="path53" />
  <path
     d="M27,.46V1h-1V.54z"
     fill="#A5E6D3"
     id="path54" />
  <path
     d="M26,0h1v1h-1z"
     fill="#A5E6D3"
     fill-opacity="1"
     id="path55" />
  <path
     d="M28,.46V1h-1V.54z"
     fill="#A5E6D3"
     id="path56" />
  <path
     d="M27,0h1v1h-1z"
     fill="#A5E6D3"
     fill-opacity="1"
     id="path57" />
  <path
     d="M29,.46V1h-1V.54z"
     fill="#A5E6D3"
     id="path58" />
  <path
     d="M28,0h1v1h-1z"
     fill="#A5E6D3"
     fill-opacity="1"
     id="path59" />
  <path
     d="M30,.46V1h-1V.54z"
     fill="#A5E6D3"
     id="path60" />
  <path
     d="M29,0h1v1h-1z"
     fill="#A5E6D3"
     fill-opacity="1"
     id="path61" />
  <path
     d="M31,.46V1h-1V.54z"
     fill="#A5E6D3"
     id="path62" />
  <path
     d="M30,0h1v1h-1z"
     fill="#A5E6D3"
     fill-opacity="1"
     id="path63" />
  <path
     d="M32,.46V1h-1V.54z"
     fill="#A5E6D3"
     id="path64" />
  <path
     d="M31,0h1v1h-1z"
     fill="#A5E6D3"
     fill-opacity="1"
     id="path65" />
  <path
     d="M33,.46V1h-1V.54z"
     fill="#A5E6D3"
     id="path66" />
  <path
     d="M32,0h1v1h-1z"
     fill="#A5E6D3"
     fill-opacity="1"
     id="path67" />
  <path
     d="M34,.46V1h-1V.54z"
     fill="#5DC1D3"
     id="path68" />
  <path
     d="M33,0h1v1h-1z"
     fill="#5DC1D3"
     fill-opacity="1"
     id="path69" />
  <path
     d="M35,.46V1h-1V.54z"
     fill="#5DC1D3"
     id="path70" />
  <path
     d="M34,0h1v1h-1z"
     fill="#5DC1D3"
     fill-opacity="1"
     id="path71" />
  <path
     d="M36,.46V1h-1V.54z"
     fill="#5DC1D3"
     id="path72" />
  <path
     d="M35,0h1v1h-1z"
     fill="#5DC1D3"
     fill-opacity="1"
     id="path73" />
  <path
     d="M37,.46V1h-1V.54z"
     fill="#5DC1D3"
     id="path74" />
  <path
     d="M36,0h1v1h-1z"
     fill="#5DC1D3"
     fill-opacity="1"
     id="path75" />
  <path
     d="M38,.46V1h-1V.54z"
     fill="#5DC1D3"
     id="path76" />
  <path
     d="M37,0h1v1h-1z"
     fill="#5DC1D3"
     fill-opacity="1"
     id="path77" />
  <path
     d="M39,.46V1h-1V.54z"
     fill="#5DC1D3"
     id="path78" />
  <path
     d="M38,0h1v1h-1z"
     fill="#5DC1D3"
     fill-opacity="1"
     id="path79" />
  <path
     d="M40,.46V1h-1V.54z"
     fill="#5DC1D3"
     id="path80" />
  <path
     d="M39,0h1v1h-1z"
     fill="#5DC1D3"
     fill-opacity="1"
     id="path81" />
  <path
     d="M41,.46V1h-1V.54z"
     fill="#5DC1D3"
     id="path82" />
  <path
     d="M40,0h1v1h-1z"
     fill="#5DC1D3"
     fill-opacity="1"
     id="path83" />
  <path
     d="M42,.46V1h-1V.54z"
     fill="#5DC1D3"
     id="path84" />
  <path
     d="M41,0h1v1h-1z"
     fill="#5DC1D3"
     fill-opacity="1"
     id="path85" />
  <path
     d="M43,.46V1h-1V.54z"
     fill="#5DC1D3"
     id="path86" />
  <path
     d="M42,0h1v1h-1z"
     fill="#5DC1D3"
     fill-opacity="1"
     id="path87" />
  <path
     d="M44,.46V1h-1V.54z"
     fill="#5DC1D3"
     id="path88" />
  <path
     d="M43,0h1v1h-1z"
     fill="#5DC1D3"
     fill-opacity="1"
     id="path89" />
  <path
     d="M45,.46V1h-1V.54z"
     fill="#5DC1D3"
     id="path90" />
  <path
     d="M44,0h1v1h-1z"
     fill="#5DC1D3"
     fill-opacity="1"
     id="path91" />
  <path
     d="M46,.46V1h-1V.54z"
     fill="#3291C2"
     id="path92" />
  <path
     d="M45,0h1v1h-1z"
     fill="#3291C2"
     fill-opacity="1"
     id="path93" />
  <path
     d="M47,.46V1h-1V.54z"
     fill="#3291C2"
     id="path94" />
  <path
     d="M46,0h1v1h-1z"
     fill="#3291C2"
     fill-opacity="1"
     id="path95" />
  <path
     d="M48,.46V1h-1V.54z"
     fill="#3291C2"
     id="path96" />
  <path
     d="M47,0h1v1h-1z"
     fill="#3291C2"
     fill-opacity="1"
     id="path97" />
  <path
     d="M49,.46V1h-1V.54z"
     fill="#3291C2"
     id="path98" />
  <path
     d="M48,0h1v1h-1z"
     fill="#3291C2"
     fill-opacity="1"
     id="path99" />
  <path
     d="M50,.46V1h-1V.54z"
     fill="#3291C2"
     id="path100" />
  <path
     d="M49,0h1v1h-1z"
     fill="#3291C2"
     fill-opacity="1"
     id="path101" />
  <path
     d="M51,.46V1h-1V.54z"
     fill="#3291C2"
     id="path102" />
  <path
     d="M50,0h1v1h-1z"
     fill="#3291C2"
     fill-opacity="1"
     id="path103" />
  <path
     d="M52,.46V1h-1V.54z"
     fill="#3291C2"
     id="path104" />
  <path
     d="M51,0h1v1h-1z"
     fill="#3291C2"
     fill-opacity="1"
     id="path105" />
  <path
     d="M53,.46V1h-1V.54z"
     fill="#3291C2"
     id="path106" />
  <path
     d="M52,0h1v1h-1z"
     fill="#3291C2"
     fill-opacity="1"
     id="path107" />
  <path
     d="M54,.46V1h-1V.54z"
     fill="#3291C2"
     id="path108" />
  <path
     d="M53,0h1v1h-1z"
     fill="#3291C2"
     fill-opacity="1"
     id="path109" />
  <path
     d="M55,.46V1h-1V.54z"
     fill="#3291C2"
     id="path110" />
  <path
     d="M54,0h1v1h-1z"
     fill="#3291C2"
     fill-opacity="1"
     id="path111" />
  <path
     d="M56,.46V1h-1V.54z"
     fill="#3291C2"
     id="path112" />
  <path
     d="M55,0h1v1h-1z"
     fill="#3291C2"
     fill-opacity="1"
     id="path113" />
  <path
     d="M57,.46V1h-1V.54z"
     fill="#3291C2"
     id="path114" />
  <path
     d="M56,0h1v1h-1z"
     fill="#3291C2"
     fill-opacity="1"
     id="path115" />
  <path
     d="M58,.46V1h-1V.54z"
     fill="#3291C2"
     id="path116" />
  <path
     d="M57,0h1v1h-1z"
     fill="#3291C2"
     fill-opacity="1"
     id="path117" />
  <path
     d="M59,.46V1h-1V.54z"
     fill="#3291C2"
     id="path118" />
  <path
     d="M58,0h1v1h-1z"
     fill="#3291C2"
     fill-opacity="1"
     id="path119" />
  <path
     d="M60,.46V1h-1V.54z"
     fill="#2064AF"
     id="path120" />
  <path
     d="M59,0h1v1h-1z"
     fill="#2064AF"
     fill-opacity="1"
     id="path121" />
  <path
     d="M61,.46V1h-1V.54z"
     fill="#2064AF"
     id="path122" />
  <path
     d="M60,0h1v1h-1z"
     fill="#2064AF"
     fill-opacity="1"
     id="path123" />
  <path
     d="M62,.46V1h-1V.54z"
     fill="#2064AF"
     id="path124" />
  <path
     d="M61,0h1v1h-1z"
     fill="#2064AF"
     fill-opacity="1"
     id="path125" />
  <path
     d="M63,.46V1h-1V.54z"
     fill="#2064AF"
     id="path126" />
  <path
     d="M62,0h1v1h-1z"
     fill="#2064AF"
     fill-opacity="1"
     id="path127" />
  <path
     d="M64,.46V1h-1V.54z"
     fill="#2064AF"
     id="path128" />
  <path
     d="M63,0h1v1h-1z"
     fill="#2064AF"
     fill-opacity="1"
     id="path129" />
  <path
     d="M65,.46V1h-1V.54z"
     fill="#2064AF"
     id="path130" />
  <path
     d="M64,0h1v1h-1z"
     fill="#2064AF"
     fill-opacity="1"
     id="path131" />
  <path
     d="M66,.46V1h-1V.54z"
     fill="#2064AF"
     id="path132" />
  <path
     d="M65,0h1v1h-1z"
     fill="#2064AF"
     fill-opacity="1"
     id="path133" />
  <path
     d="M67,.46V1h-1V.54z"
     fill="#2064AF"
     id="path134" />
  <path
     d="M66,0h1v1h-1z"
     fill="#2064AF"
     fill-opacity="1"
     id="path135" />
  <path
     d="M68,.46V1h-1V.54z"
     fill="#2064AF"
     id="path136" />
  <path
     d="M67,0h1v1h-1z"
     fill="#2064AF"
     fill-opacity="1"
     id="path137" />
  <path
     d="M69,.46V1h-1V.54z"
     fill="#2064AF"
     id="path138" />
  <path
     d="M68,0h1v1h-1z"
     fill="#2064AF"
     fill-opacity="1"
     id="path139" />
  <path
     d="M70,.46V1h-1V.54z"
     fill="#2064AF"
     id="path140" />
  <path
     d="M69,0h1v1h-1z"
     fill="#2064AF"
     fill-opacity="1"
     id="path141" />
  <path
     d="M71,.46V1h-1V.54z"
     fill="#2064AF"
     id="path142" />
  <path
     d="M70,0h1v1h-1z"
     fill="#2064AF"
     fill-opacity="1"
     id="path143" />
  <path
     d="M72,.46V1h-1V.54z"
     fill="#2064AF"
     id="path144" />
  <path
     d="M71,0h1v1h-1z"
     fill="#2064AF"
     fill-opacity="1"
     id="path145" />
  <path
     d="M73,.46V1h-1V.54z"
     fill="#2064AF"
     id="path146" />
  <path
     d="M72,0h1v1h-1z"
     fill="#2064AF"
     fill-opacity="1"
     id="path147" />
  <path
     d="M74,.46V1h-1V.54z"
     fill="#2064AF"
     id="path148" />
  <path
     d="M73,0h1v1h-1z"
     fill="#2064AF"
     fill-opacity="1"
     id="path149" />
  <path
     d="M75,.46V1h-1V.54z"
     fill="#2064AF"
     id="path150" />
  <path
     d="M74,0h1v1h-1z"
     fill="#2064AF"
     fill-opacity="1"
     id="path151" />
  <path
     d="M76,.46V1h-1V.54z"
     fill="#2064AF"
     id="path152" />
  <path
     d="M75,0h1v1h-1z"
     fill="#2064AF"
     fill-opacity="1"
     id="path153" />
  <path
     d="M77,.46V1h-1V.54z"
     fill="#2064AF"
     id="path154" />
  <path
     d="M76,0h1v1h-1z"
     fill="#2064AF"
     fill-opacity="1"
     id="path155" />
  <path
     d="M78,.46V1h-1V.54z"
     fill="#033198"
     id="path156" />
  <path
     d="M77,0h1v1h-1z"
     fill="#033198"
     fill-opacity="1"
     id="path157" />
  <path
     d="M79,.46V1h-1V.54z"
     fill="#033198"
     id="path158" />
  <path
     d="M78,0h1v1h-1z"
     fill="#033198"
     fill-opacity="1"
     id="path159" />
  <path
     d="M80,.46V1h-1V.54z"
     fill="#033198"
     id="path160" />
  <path
     d="M79,0h1v1h-1z"
     fill="#033198"
     fill-opacity="1"
     id="path161" />
  <path
     d="M81,.46V1h-1V.54z"
     fill="#033198"
     id="path162" />
  <path
     d="M80,0h1v1h-1z"
     fill="#033198"
     fill-opacity="1"
     id="path163" />
  <path
     d="M82,.46V1h-1V.54z"
     fill="#033198"
     id="path164" />
  <path
     d="M81,0h1v1h-1z"
     fill="#033198"
     fill-opacity="1"
     id="path165" />
  <path
     d="M83,.46V1h-1V.54z"
     fill="#033198"
     id="path166" />
  <path
     d="M82,0h1v1h-1z"
     fill="#033198"
     fill-opacity="1"
     id="path167" />
  <path
     d="M84,.46V1h-1V.54z"
     fill="#033198"
     id="path168" />
  <path
     d="M83,0h1v1h-1z"
     fill="#033198"
     fill-opacity="1"
     id="path169" />
  <path
     d="M85,.46V1h-1V.54z"
     fill="#033198"
     id="path170" />
  <path
     d="M84,0h1v1h-1z"
     fill="#033198"
     fill-opacity="1"
     id="path171" />
  <path
     d="M86,.46V1h-1V.54z"
     fill="#033198"
     id="path172" />
  <path
     d="M85,0h1v1h-1z"
     fill="#033198"
     fill-opacity="1"
     id="path173" />
  <path
     d="M87,.46V1h-1V.54z"
     fill="#033198"
     id="path174" />
  <path
     d="M86,0h1v1h-1z"
     fill="#033198"
     fill-opacity="1"
     id="path175" />
  <path
     d="M88,.46V1h-1V.54z"
     fill="#033198"
     id="path176" />
  <path
     d="M87,0h1v1h-1z"
     fill="#033198"
     fill-opacity="1"
     id="path177" />
  <path
     d="M89,.46V1h-1V.54z"
     fill="#033198"
     id="path178" />
  <path
     d="M88,0h1v1h-1z"
     fill="#033198"
     fill-opacity="1"
     id="path179" />
  <path
     d="M90,.46V1h-1V.54z"
     fill="#033198"
     id="path180" />
  <path
     d="M89,0h1v1h-1z"
     fill="#033198"
     fill-opacity="1"
     id="path181" />
  <path
     d="M91,.46V1h-1V.54z"
     fill="#033198"
     id="path182" />
  <path
     d="M90,0h1v1h-1z"
     fill="#033198"
     fill-opacity="1"
     id="path183" />
  <path
     d="M92,.46V1h-1V.54z"
     fill="#033198"
     id="path184" />
  <path
     d="M91,0h1v1h-1z"
     fill="#033198"
     fill-opacity="1"
     id="path185" />
  <path
     d="M93,.46V1h-1V.54z"
     fill="#033198"
     id="path186" />
  <path
     d="M92,0h1v1h-1z"
     fill="#033198"
     fill-opacity="1"
     id="path187" />
  <path
     d="M94,.46V1h-1V.54z"
     fill="#033198"
     id="path188" />
  <path
     d="M93,0h1v1h-1z"
     fill="#033198"
     fill-opacity="1"
     id="path189" />
  <path
     d="M95,.46V1h-1V.54z"
     fill="#033198"
     id="path190" />
  <path
     d="M94,0h1v1h-1z"
     fill="#033198"
     fill-opacity="1"
     id="path191" />
  <path
     d="M96,.46V1h-1V.54z"
     fill="#033198"
     id="path192" />
  <path
     d="M95,0h1v1h-1z"
     fill="#033198"
     fill-opacity="1"
     id="path193" />
  <path
     d="M97,.46V1h-1V.54z"
     fill="#033198"
     id="path194" />
  <path
     d="M96,0h1v1h-1z"
     fill="#033198"
     fill-opacity="1"
     id="path195" />
  <path
     d="M98,.46V1h-1V.54z"
     fill="#033198"
     id="path196" />
  <path
     d="M97,0h1v1h-1z"
     fill="#033198"
     fill-opacity="1"
     id="path197" />
  <path
     d="M99,.46V1h-1V.54z"
     fill="#033198"
     id="path198" />
  <path
     d="M98,0h1v1h-1z"
     fill="#033198"
     fill-opacity="1"
     id="path199" />
  <path
     d="M100,.46V1h-1V.54z"
     fill="#033198"
     id="path200" />
  <path
     d="M99,0h1v1h-1z"
     fill="#033198"
     fill-opacity="1"
     id="path201" />
  <text
     xml:space="preserve"
     style="font-size:1.05178px;line-height:1.25;font-family:'Open Sans';-inkscape-font-specification:'Open Sans';stroke-width:0.0394417"
     x="0.40779349"
     y="0.85636628"
     id="text201"
     transform="scale(3.7267805,0.26832812)"><tspan
       id="tspan201"
       style="font-size:1.05178px;stroke-width:0.0394417"
       x="0.40779349"
       y="0.85636628"
       sodipodi:role="line" /></text>
  <text
     xml:space="preserve"
     style="font-style:normal;font-variant:normal;font-weight:bold;font-stretch:normal;font-size:0.841447px;line-height:0.85;font-family:'Open Sans';-inkscape-font-specification:'Open Sans Bold';fill:#fefefe;fill-opacity:1;stroke-width:0.0394427"
     x="0.14272152"
     y="1.1010716"
     id="text202"
     transform="scale(3.7268835,0.2683207)"><tspan
       sodipodi:role="line"
       id="tspan202"
       style="font-style:normal;font-variant:normal;font-weight:bold;font-stretch:normal;font-size:0.841447px;line-height:0.85;font-family:'Open Sans';-inkscape-font-specification:'Open Sans Bold';fill:#fefefe;fill-opacity:1;stroke-width:0.0394427"
       x="0.14272152"
       y="1.1010716">9</tspan><tspan
       sodipodi:role="line"
       style="font-style:normal;font-variant:normal;font-weight:bold;font-stretch:normal;font-size:0.841447px;line-height:0.85;font-family:'Open Sans';-inkscape-font-specification:'Open Sans Bold';fill:#fefefe;fill-opacity:1;stroke-width:0.0394427"
       x="0.14272152"
       y="1.8163016"
       id="tspan203">0</tspan><tspan
       sodipodi:role="line"
       style="font-style:normal;font-variant:normal;font-weight:bold;font-stretch:normal;font-size:0.841447px;line-height:0.85;font-family:'Open Sans';-inkscape-font-specification:'Open Sans Bold';fill:#fefefe;fill-opacity:1;stroke-width:0.0394427"
       x="0.14272152"
       y="2.5315316"
       id="tspan204">0</tspan><tspan
       sodipodi:role="line"
       style="font-style:normal;font-variant:normal;font-weight:bold;font-stretch:normal;font-size:0.841447px;line-height:0.85;font-family:'Open Sans';-inkscape-font-specification:'Open Sans Bold';fill:#fefefe;fill-opacity:1;stroke-width:0.0394427"
       x="0.14272152"
       y="3.2467616"
       id="tspan207">+</tspan></text>
  <text
     xml:space="preserve"
     style="font-style:normal;font-variant:normal;font-weight:bold;font-stretch:normal;font-size:0.841424px;line-height:0.85;font-family:'Open Sans';-inkscape-font-specification:'Open Sans Bold';fill:#fefefe;fill-opacity:1;stroke-width:0.0394417"
     x="1.082441"
     y="1.1018969"
     id="text202-3"
     transform="scale(3.7267805,0.26832812)"><tspan
       sodipodi:role="line"
       id="tspan202-7"
       style="font-style:normal;font-variant:normal;font-weight:bold;font-stretch:normal;font-size:0.841424px;line-height:0.85;font-family:'Open Sans';-inkscape-font-specification:'Open Sans Bold';fill:#fefefe;fill-opacity:1;stroke-width:0.0394417"
       x="1.082441"
       y="1.1018969">8</tspan><tspan
       sodipodi:role="line"
       style="font-style:normal;font-variant:normal;font-weight:bold;font-stretch:normal;font-size:0.841424px;line-height:0.85;font-family:'Open Sans';-inkscape-font-specification:'Open Sans Bold';fill:#fefefe;fill-opacity:1;stroke-width:0.0394417"
       x="1.082441"
       y="1.8171073"
       id="tspan203-6">0</tspan><tspan
       sodipodi:role="line"
       style="font-style:normal;font-variant:normal;font-weight:bold;font-stretch:normal;font-size:0.841424px;line-height:0.85;font-family:'Open Sans';-inkscape-font-specification:'Open Sans Bold';fill:#fefefe;fill-opacity:1;stroke-width:0.0394417"
       x="1.082441"
       y="2.5323179"
       id="tspan204-4">0</tspan></text>
  <text
     xml:space="preserve"
     style="font-size:0.8414241px;line-height:1.25;font-family:'Open Sans';-inkscape-font-specification:'Open Sans';stroke-width:0.0394417;fill:#fefefe;fill-opacity:1"
     x="1.3253289"
     y="0.99909401"
     id="text205"
     transform="scale(3.7267805,0.26832812)"><tspan
       sodipodi:role="line"
       style="stroke-width:0.0394417;fill:#fefefe;fill-opacity:1;font-size:0.8414241px"
       x="1.3253289"
       y="0.99909401"
       id="tspan206" /></text>
  <g
     id="g1"
     transform="translate(9.300762,0.07113336)">
    <text
       xml:space="preserve"
       style="font-style:normal;font-variant:normal;font-weight:bold;font-stretch:normal;font-size:0.841424px;line-height:0.85;font-family:'Open Sans';-inkscape-font-specification:'Open Sans Bold';fill:#fefefe;fill-opacity:1;stroke-width:0.0394417"
       x="-0.36701417"
       y="0.83597678"
       id="text202-4"
       transform="scale(3.7267805,0.26832812)"><tspan
         sodipodi:role="line"
         id="tspan202-3"
         style="font-style:normal;font-variant:normal;font-weight:bold;font-stretch:normal;font-size:0.841424px;line-height:0.85;font-family:'Open Sans';-inkscape-font-specification:'Open Sans Bold';fill:#fefefe;fill-opacity:1;stroke-width:0.0394417"
         x="-0.36701417"
         y="0.83597678">6</tspan><tspan
         sodipodi:role="line"
         style="font-style:normal;font-variant:normal;font-weight:bold;font-stretch:normal;font-size:0.841424px;line-height:0.85;font-family:'Open Sans';-inkscape-font-specification:'Open Sans Bold';fill:#fefefe;fill-opacity:1;stroke-width:0.0394417"
         x="-0.36701417"
         y="1.5511872"
         id="tspan203-5">0</tspan><tspan
         sodipodi:role="line"
         style="font-style:normal;font-variant:normal;font-weight:bold;font-stretch:normal;font-size:0.841424px;line-height:0.85;font-family:'Open Sans';-inkscape-font-specification:'Open Sans Bold';fill:#fefefe;fill-opacity:1;stroke-width:0.0394417"
         x="-0.36701417"
         y="2.2663977"
         id="tspan204-0">0</tspan></text>
  </g>
  <text
     xml:space="preserve"
     style="font-style:normal;font-variant:normal;font-weight:bold;font-stretch:normal;font-size:0.841424px;line-height:0.85;font-family:'Open Sans';-inkscape-font-specification:'Open Sans Bold';fill:#fefefe;fill-opacity:1;stroke-width:0.0394417"
     x="3.4589608"
     y="1.0940907"
     id="text202-7"
     transform="scale(3.7267805,0.26832812)"><tspan
       sodipodi:role="line"
       id="tspan202-2"
       style="font-style:normal;font-variant:normal;font-weight:bold;font-stretch:normal;font-size:0.841424px;line-height:0.85;font-family:'Open Sans';-inkscape-font-specification:'Open Sans Bold';fill:#fefefe;fill-opacity:1;stroke-width:0.0394417"
       x="3.4589608"
       y="1.0940907">5</tspan><tspan
       sodipodi:role="line"
       style="font-style:normal;font-variant:normal;font-weight:bold;font-stretch:normal;font-size:0.841424px;line-height:0.85;font-family:'Open Sans';-inkscape-font-specification:'Open Sans Bold';fill:#fefefe;fill-opacity:1;stroke-width:0.0394417"
       x="3.4589608"
       y="1.8093011"
       id="tspan203-60">0</tspan><tspan
       sodipodi:role="line"
       style="font-style:normal;font-variant:normal;font-weight:bold;font-stretch:normal;font-size:0.841424px;line-height:0.85;font-family:'Open Sans';-inkscape-font-specification:'Open Sans Bold';fill:#fefefe;fill-opacity:1;stroke-width:0.0394417"
       x="3.4589608"
       y="2.5245116"
       id="tspan204-6">0</tspan></text>
  <text
     xml:space="preserve"
     style="font-style:normal;font-variant:normal;font-weight:bold;font-stretch:normal;font-size:0.841424px;line-height:0.85;font-family:'Open Sans';-inkscape-font-specification:'Open Sans Bold';fill:#fefefe;fill-opacity:1;stroke-width:0.0394417"
     x="5.2840166"
     y="1.0940907"
     id="text202-0"
     transform="scale(3.7267805,0.26832812)"><tspan
       sodipodi:role="line"
       id="tspan202-1"
       style="font-style:normal;font-variant:normal;font-weight:bold;font-stretch:normal;font-size:0.841424px;line-height:0.85;font-family:'Open Sans';-inkscape-font-specification:'Open Sans Bold';fill:#fefefe;fill-opacity:1;stroke-width:0.0394417"
       x="5.2840166"
       y="1.0940907">4</tspan><tspan
       sodipodi:role="line"
       style="font-style:normal;font-variant:normal;font-weight:bold;font-stretch:normal;font-size:0.841424px;line-height:0.85;font-family:'Open Sans';-inkscape-font-specification:'Open Sans Bold';fill:#fefefe;fill-opacity:1;stroke-width:0.0394417"
       x="5.2840166"
       y="1.8093011"
       id="tspan203-2">0</tspan><tspan
       sodipodi:role="line"
       style="font-style:normal;font-variant:normal;font-weight:bold;font-stretch:normal;font-size:0.841424px;line-height:0.85;font-family:'Open Sans';-inkscape-font-specification:'Open Sans Bold';fill:#fefefe;fill-opacity:1;stroke-width:0.0394417"
       x="5.2840166"
       y="2.5245116"
       id="tspan204-1">0</tspan></text>
  <text
     xml:space="preserve"
     style="font-style:normal;font-variant:normal;font-weight:bold;font-stretch:normal;font-size:0.841424px;line-height:0.85;font-family:'Open Sans';-inkscape-font-specification:'Open Sans Bold';fill:#fefefe;fill-opacity:1;stroke-width:0.0394417"
     x="7.4422865"
     y="1.1027186"
     id="text202-33"
     transform="scale(3.7267805,0.26832812)"><tspan
       sodipodi:role="line"
       id="tspan202-38"
       style="font-style:normal;font-variant:normal;font-weight:bold;font-stretch:normal;font-size:0.841424px;line-height:0.85;font-family:'Open Sans';-inkscape-font-specification:'Open Sans Bold';fill:#fefefe;fill-opacity:1;stroke-width:0.0394417"
       x="7.4422865"
       y="1.1027186">3</tspan><tspan
       sodipodi:role="line"
       style="font-style:normal;font-variant:normal;font-weight:bold;font-stretch:normal;font-size:0.841424px;line-height:0.85;font-family:'Open Sans';-inkscape-font-specification:'Open Sans Bold';fill:#fefefe;fill-opacity:1;stroke-width:0.0394417"
       x="7.4422865"
       y="1.817929"
       id="tspan203-3">0</tspan><tspan
       sodipodi:role="line"
       style="font-style:normal;font-variant:normal;font-weight:bold;font-stretch:normal;font-size:0.841424px;line-height:0.85;font-family:'Open Sans';-inkscape-font-specification:'Open Sans Bold';fill:#fefefe;fill-opacity:1;stroke-width:0.0394417"
       x="7.4422865"
       y="2.5331395"
       id="tspan204-7">0</tspan></text>
  <text
     xml:space="preserve"
     style="font-style:normal;font-variant:normal;font-weight:bold;font-stretch:normal;font-size:0.841424px;line-height:0.85;font-family:'Open Sans';-inkscape-font-specification:'Open Sans Bold';fill:#fefefe;fill-opacity:1;stroke-width:0.0394417"
     x="10.208559"
     y="1.1027186"
     id="text202-8"
     transform="scale(3.7267805,0.26832812)"><tspan
       sodipodi:role="line"
       id="tspan202-0"
       style="font-style:normal;font-variant:normal;font-weight:bold;font-stretch:normal;font-size:0.841424px;line-height:0.85;font-family:'Open Sans';-inkscape-font-specification:'Open Sans Bold';fill:#fefefe;fill-opacity:1;stroke-width:0.0394417"
       x="10.208559"
       y="1.1027186">2</tspan><tspan
       sodipodi:role="line"
       style="font-style:normal;font-variant:normal;font-weight:bold;font-stretch:normal;font-size:0.841424px;line-height:0.85;font-family:'Open Sans';-inkscape-font-specification:'Open Sans Bold';fill:#fefefe;fill-opacity:1;stroke-width:0.0394417"
       x="10.208559"
       y="1.817929"
       id="tspan203-8">0</tspan><tspan
       sodipodi:role="line"
       style="font-style:normal;font-variant:normal;font-weight:bold;font-stretch:normal;font-size:0.841424px;line-height:0.85;font-family:'Open Sans';-inkscape-font-specification:'Open Sans Bold';fill:#fefefe;fill-opacity:1;stroke-width:0.0394417"
       x="10.208559"
       y="2.5331395"
       id="tspan204-65">0</tspan></text>
  <text
     xml:space="preserve"
     style="font-style:normal;font-variant:normal;font-weight:bold;font-stretch:normal;font-size:0.841424px;line-height:0.85;font-family:'Open Sans';-inkscape-font-specification:'Open Sans Bold';fill:#fefefe;fill-opacity:1;stroke-width:0.0394417"
     x="13.754991"
     y="1.0940907"
     id="text202-02"
     transform="scale(3.7267805,0.26832812)"><tspan
       sodipodi:role="line"
       id="tspan202-6"
       style="font-style:normal;font-variant:normal;font-weight:bold;font-stretch:normal;font-size:0.841424px;line-height:0.85;font-family:'Open Sans';-inkscape-font-specification:'Open Sans Bold';fill:#fefefe;fill-opacity:1;stroke-width:0.0394417"
       x="13.754991"
       y="1.0940907">1</tspan><tspan
       sodipodi:role="line"
       style="font-style:normal;font-variant:normal;font-weight:bold;font-stretch:normal;font-size:0.841424px;line-height:0.85;font-family:'Open Sans';-inkscape-font-specification:'Open Sans Bold';fill:#fefefe;fill-opacity:1;stroke-width:0.0394417"
       x="13.754991"
       y="1.8093011"
       id="tspan203-61">0</tspan><tspan
       sodipodi:role="line"
       style="font-style:normal;font-variant:normal;font-weight:bold;font-stretch:normal;font-size:0.841424px;line-height:0.85;font-family:'Open Sans';-inkscape-font-specification:'Open Sans Bold';fill:#fefefe;fill-opacity:1;stroke-width:0.0394417"
       x="13.754991"
       y="2.5245116"
       id="tspan204-2">0</tspan></text>
  <text
     xml:space="preserve"
     style="font-style:normal;font-variant:normal;font-weight:bold;font-stretch:normal;font-size:0.841424px;line-height:0.85;font-family:'Open Sans';-inkscape-font-specification:'Open Sans Bold';fill:#fefefe;fill-opacity:1;stroke-width:0.0394417"
     x="18.083569"
     y="0.37888029"
     id="text202-5"
     transform="scale(3.7267805,0.26832812)"><tspan
       sodipodi:role="line"
       id="tspan202-13"
       style="font-style:normal;font-variant:normal;font-weight:bold;font-stretch:normal;font-size:0.841424px;line-height:0.85;font-family:'Open Sans';-inkscape-font-specification:'Open Sans Bold';fill:#fefefe;fill-opacity:1;stroke-width:0.0394417"
       x="18.083569"
       y="0.37888029" /><tspan
       sodipodi:role="line"
       style="font-style:normal;font-variant:normal;font-weight:bold;font-stretch:normal;font-size:0.841424px;line-height:0.85;font-family:'Open Sans';-inkscape-font-specification:'Open Sans Bold';fill:#fefefe;fill-opacity:1;stroke-width:0.0394417"
       x="18.083569"
       y="1.0940907"
       id="tspan203-63">7</tspan><tspan
       sodipodi:role="line"
       style="font-style:normal;font-variant:normal;font-weight:bold;font-stretch:normal;font-size:0.841424px;line-height:0.85;font-family:'Open Sans';-inkscape-font-specification:'Open Sans Bold';fill:#fefefe;fill-opacity:1;stroke-width:0.0394417"
       x="18.083569"
       y="1.809301"
       id="tspan204-23">5</tspan></text>
  <text
     xml:space="preserve"
     style="font-style:normal;font-variant:normal;font-weight:bold;font-stretch:normal;font-size:0.841424px;line-height:0.85;font-family:'Open Sans';-inkscape-font-specification:'Open Sans Bold';fill:#fefefe;fill-opacity:1;stroke-width:0.0394417"
     x="23.168552"
     y="-0.32688051"
     id="text202-2"
     transform="scale(3.7267805,0.26832812)"><tspan
       sodipodi:role="line"
       id="tspan202-33"
       style="font-style:normal;font-variant:normal;font-weight:bold;font-stretch:normal;font-size:0.841424px;font-family:'Open Sans';-inkscape-font-specification:'Open Sans Bold';fill:#fefefe;fill-opacity:1;stroke-width:0.0394417"
       x="23.168552"
       y="-0.32688051" /><tspan
       sodipodi:role="line"
       style="font-style:normal;font-variant:normal;font-weight:bold;font-stretch:normal;font-size:0.841424px;font-family:'Open Sans';-inkscape-font-specification:'Open Sans Bold';fill:#fefefe;fill-opacity:1;stroke-width:0.0394417"
       x="23.168552"
       y="0.38832989"
       id="tspan203-7" /><tspan
       sodipodi:role="line"
       style="font-style:normal;font-variant:normal;font-weight:bold;font-stretch:normal;font-size:0.841424px;font-family:'Open Sans';-inkscape-font-specification:'Open Sans Bold';fill:#fefefe;fill-opacity:1;stroke-width:0.0394417"
       x="23.168552"
       y="1.1035403"
       id="tspan208">&lt;= 0</tspan></text>
</svg>
